# Blender 4.2.3 LTS
# www.blender.org
o Cube
v 5.000000 0.000000 -0.500000
v 5.000000 -1.000000 -0.000000
v 5.000000 0.000000 0.500000
v 6.000000 0.000000 -0.000000
v 6.000000 21.000000 -0.000000
v 5.000000 20.000000 0.500000
v 5.000000 20.000000 -0.500000
v -0.000000 0.000000 -0.500000
v 0.000000 0.000000 0.500000
v 0.000000 -1.000000 0.000000
v -5.000000 0.000000 -0.500000
v -5.000000 -1.000000 0.000000
v -5.000000 0.000000 0.500000
v -6.000000 0.000000 0.000000
v -6.000000 21.000000 0.000000
v -5.000000 20.000000 0.500000
v -5.000000 20.000000 -0.500000
vn -1.0000 -0.0000 -0.0000
vn 0.4082 -0.4082 -0.8165
vn 0.4082 -0.4082 0.8165
vn -0.0000 -0.4472 -0.8944
vn -0.7071 0.7071 -0.0000
vn 0.4472 -0.0000 -0.8944
vn 0.4472 -0.0000 0.8944
vn -0.0000 1.0000 -0.0000
vn 1.0000 -0.0000 -0.0000
vn -0.4082 -0.4082 -0.8165
vn -0.4082 -0.4082 0.8165
vn 0.7071 0.7071 -0.0000
vn -0.4472 -0.0000 -0.8944
vn -0.4472 -0.0000 0.8944
vn -0.0000 -0.4472 0.8944
s 0
f 3//1 7//1 1//1
f 2//2 1//2 4//2
f 3//3 2//3 4//3
f 8//4 10//4 11//4
f 7//5 6//5 5//5
f 4//6 7//6 5//6
f 4//7 6//7 3//7
f 9//8 8//8 13//8
f 17//9 13//9 11//9
f 12//10 14//10 11//10
f 13//11 14//11 12//11
f 17//12 15//12 16//12
f 14//13 17//13 11//13
f 16//14 14//14 13//14
f 9//15 12//15 10//15
f 3//1 6//1 7//1
f 8//4 1//4 2//4
f 10//4 12//4 11//4
f 8//4 2//4 10//4
f 4//6 1//6 7//6
f 4//7 5//7 6//7
f 9//8 3//8 1//8
f 8//8 11//8 13//8
f 9//8 1//8 8//8
f 17//9 16//9 13//9
f 14//13 15//13 17//13
f 16//14 15//14 14//14
f 10//15 2//15 3//15
f 9//15 13//15 12//15
f 10//15 3//15 9//15
