# Blender 4.3.2
# www.blender.org
o Cube
v -5.000000 0.000000 1.000000
v -5.000000 0.000000 -1.000000
v -5.000000 20.000000 -1.000000
v -5.000000 20.000000 1.000000
v 5.000000 0.000000 1.000000
v 5.000000 0.000000 -1.000000
v 5.000000 20.000000 -1.000000
v 5.000000 20.000000 1.000000
v -5.500000 -1.232579 -1.000000
v -5.500000 -1.232579 0.334020
v -5.906446 0.000000 0.326719
v -5.906446 0.000000 -1.000000
v -6.770769 21.712360 -1.000000
v -6.770769 21.712360 1.000000
v 5.500000 -1.232579 0.334018
v 5.500000 -1.232579 -1.000000
v 5.906446 0.000000 -1.000000
v 5.906446 0.000000 0.326717
v 6.770769 21.712389 1.000000
v 6.770769 21.712389 -1.000000
v -6.770773 -1.771454 1.000000
v 6.770773 -1.771454 1.000000
v -5.902183 20.000000 -1.000000
v -5.902183 20.000000 0.351979
v 5.902183 20.000000 0.351977
v 5.902183 20.000000 -1.000000
vn 1.0000 -0.0000 -0.0000
vn 0.6952 0.7189 -0.0000
vn -0.4995 -0.5166 0.6954
vn -0.0000 1.0000 -0.0000
vn -1.0000 -0.0000 -0.0000
vn -0.6952 0.7189 -0.0000
vn 0.4995 -0.5166 0.6954
vn 0.3904 -0.9206 -0.0000
vn -1.0000 0.0002 -0.0000
vn 1.0000 0.0002 -0.0000
vn -0.0000 -1.0000 -0.0000
vn -0.0000 -0.4754 0.8798
vn -0.8987 0.4385 -0.0000
vn 0.8987 0.4385 -0.0000
vn -0.3904 -0.9206 -0.0000
vn 0.5122 0.5120 0.6896
vn -0.5583 -0.5581 0.6138
vn -0.5122 0.5120 0.6896
vn 0.5583 -0.5581 0.6138
vn 0.8918 -0.4524 -0.0000
vn -0.8918 -0.4524 -0.0000
vn -0.5834 -0.0000 0.8122
vn 0.5963 -0.0009 0.8028
vn 0.7825 -0.2580 -0.5667
vn -0.7825 -0.2580 -0.5667
vn -0.5963 -0.0009 0.8028
vn 0.5834 -0.0000 0.8122
s 0
f 2//1 4//1 1//1
f 3//2 14//2 4//2
f 24//3 4//3 14//3
f 1//4 6//4 2//4
f 8//5 6//5 5//5
f 19//6 7//6 8//6
f 25//7 19//7 8//7
f 9//8 10//8 21//8
f 23//9 11//9 24//9
f 18//10 26//10 25//10
f 15//11 9//11 16//11
f 10//12 5//12 1//12
f 11//13 12//13 21//13
f 17//14 18//14 22//14
f 15//15 16//15 22//15
f 5//16 22//16 18//16
f 5//17 15//17 22//17
f 11//18 21//18 1//18
f 10//19 1//19 21//19
f 25//20 20//20 19//20
f 13//21 24//21 14//21
f 24//22 1//22 4//22
f 25//23 5//23 18//23
f 22//24 16//24 17//24
f 21//25 12//25 9//25
f 2//1 3//1 4//1
f 3//2 13//2 14//2
f 1//4 5//4 6//4
f 8//5 7//5 6//5
f 19//6 20//6 7//6
f 23//9 12//9 11//9
f 18//10 17//10 26//10
f 15//11 10//11 9//11
f 10//12 15//12 5//12
f 25//20 26//20 20//20
f 13//21 23//21 24//21
f 24//26 11//26 1//26
f 25//27 8//27 5//27
